# xmcd
#
# Track frame offsets:
#	150
#	13127
#	36005
#	55837
#	84045
#	101515
#	115412
#	133157
#	153530
#	168205
#	182690
#	206000
#
# Disc length: 2862 seconds
#
# Revision: 0
# Processed by: cddbd v1.5PL3 Copyright (c) Steve Scherf et al.
# Submitted via: EasyCDDAExtractor 5.0.2.1
#
DISCID=970b2c0c
DTITLE=The Tommy Shreve Band - Bon Ton Boogie
DYEAR=1996
DGENRE=Blues
TTITLE0=Bon Ton Boogie
TTITLE1=You got a love
TTITLE2=Shame on you
TTITLE3=Summertime
TTITLE4=Little Eva
TTITLE5=Hideaway
TTITLE6=She got the rhythm
TTITLE7=Shacked up with the blues
TTITLE8=What a woman can do
TTITLE9=Flammes d'enfer
TTITLE10=Angola
TTITLE11=Two shrimp
EXTD=
EXTT0=
EXTT1=
EXTT2=
EXTT3=
EXTT4=
EXTT5=
EXTT6=
EXTT7=
EXTT8=
EXTT9=
EXTT10=
EXTT11=
PLAYORDER=
